<?xml version="1.0" standalone="no"?>
<!DOCTYPE svg PUBLIC "-//W3C//DTD SVG 20010904//EN"
 "http://www.w3.org/TR/2001/REC-SVG-20010904/DTD/svg10.dtd">
<svg version="1.0" xmlns="http://www.w3.org/2000/svg"
 width="512.000000pt" height="512.000000pt" viewBox="0 0 512.000000 512.000000"
 preserveAspectRatio="xMidYMid meet">
<metadata>
Created by potrace 1.11, written by Peter Selinger 2001-2013
</metadata>
<g transform="translate(0.000000,512.000000) scale(0.100000,-0.100000)"
fill="#000000" stroke="none">
<path d="M145 5113 c-28 -8 -67 -33 -94 -62 -51 -55 -51 -60 -51 -525 0 -480
1 -489 63 -549 48 -47 84 -57 217 -57 l120 0 0 -1360 0 -1360 -119 0 c-135 0
-173 -11 -226 -66 -19 -19 -39 -53 -45 -75 -7 -25 -10 -192 -8 -482 3 -438 3
-442 25 -478 13 -20 42 -49 65 -65 l41 -29 451 -3 c486 -3 488 -3 547 50 56
49 69 91 69 225 l0 123 1359 0 1359 0 4 -134 c3 -131 4 -136 33 -177 17 -23
50 -53 74 -66 l43 -23 447 1 c430 0 448 1 489 21 26 13 55 38 75 67 l32 46 3
452 c3 446 2 452 -19 498 -22 48 -61 83 -115 104 -22 9 -148 11 -480 9 -429
-3 -450 -4 -479 -23 -46 -30 -61 -46 -84 -90 -18 -34 -21 -57 -21 -162 l0
-123 -250 0 -250 0 0 450 0 450 573 0 572 1 45 23 c66 33 103 93 107 171 1 33
2 502 3 1042 l0 981 133 4 c152 4 183 17 233 91 l29 42 2 455 3 455 -23 45
c-13 25 -42 58 -66 75 l-43 30 -453 2 c-497 3 -489 4 -553 -57 -53 -50 -62
-84 -62 -220 l0 -120 -1359 0 -1359 0 -4 134 c-3 128 -5 135 -32 175 -16 22
-45 51 -65 64 -36 22 -38 22 -486 24 -247 0 -459 -1 -470 -4z m655 -593 l0
-200 -200 0 -200 0 0 200 0 200 200 0 200 0 0 -200z m3920 0 l0 -200 -200 0
-200 0 0 200 0 200 200 0 200 0 0 -200z m-3020 -650 l0 -450 -450 0 -450 0 0
250 0 250 113 1 c61 0 119 2 127 4 60 13 123 65 146 122 9 21 14 74 14 153 l0
120 250 0 250 0 0 -450z m1320 0 l0 -450 -460 0 -460 0 0 450 0 450 460 0 460
0 0 -450z m902 316 c3 -132 4 -135 34 -177 30 -41 81 -76 121 -84 10 -2 69 -4
131 -4 l112 -1 0 -250 0 -250 -450 0 -450 0 0 450 0 450 249 0 249 0 4 -134z
m-2222 -1626 l0 -460 -450 0 -450 0 0 460 0 460 450 0 450 0 0 -460z m1320 0
l0 -460 -460 0 -460 0 0 460 0 460 460 0 460 0 0 -460z m1300 0 l0 -460 -450
0 -450 0 0 460 0 460 450 0 450 0 0 -460z m-2620 -1310 l0 -450 -249 0 -249 0
-4 133 c-3 118 -5 136 -27 170 -13 21 -42 50 -64 65 -38 25 -49 27 -174 30
l-133 4 0 249 0 249 450 0 450 0 0 -450z m1320 0 l0 -450 -460 0 -460 0 0 450
0 450 460 0 460 0 0 -450z m-2220 -650 l0 -200 -200 0 -200 0 0 200 0 200 200
0 200 0 0 -200z m3920 0 l0 -200 -200 0 -200 0 0 200 0 200 200 0 200 0 0
-200z"/>
</g>
</svg>
